# xmcd
# 
# Track frame offsets:
#     150
#     8427
#     19054
#     29831
#     39842
#     49681
#     65293
#     76171
#     92228
#     101933
#     110911
#     122918
#     130146
#     138466
#     150629
#     163657
#     176562
#     193272
#     207190
#     224451
#     240181
#     253790
# 
# Disc length: 3478
# 
# Revision: 2
# Processed by: cddbd v1.5.2PL0 Copyright (c) Steve Scherf et al.
# Submitted via: fre:ac v1.0.31
# 
DISCID=330d9416
DTITLE=The Casualties - Made In N.Y.C.
DYEAR=2007
DGENRE=Punk
TTITLE0=Casualties Army
TTITLE1=On The Front Line
TTITLE2=Under Attack
TTITLE3=Riot
TTITLE4=Fight For Your Life
TTITLE5=V.I.P.
TTITLE6=Ugly Bastard
TTITLE7=Criminal Class
TTITLE8=Punk Rock Love
TTITLE9=In It For Life
TTITLE10=Social Outcast
TTITLE11=Made In N.Y.C.
TTITLE12=Blitzkrieg Bop
TTITLE13=On City Streets
TTITLE14=Get Off My Back
TTITLE15=System Failed Us...Again
TTITLE16=For The Punx
TTITLE17=Tomorrow Belongs To Us
TTITLE18=Unknown Soldier
TTITLE19=Down And Out
TTITLE20=Punx Unite
TTITLE21=40 Oz. Casualty
EXTD=
EXTT0=
EXTT1=
EXTT2=
EXTT3=
EXTT4=
EXTT5=
EXTT6=
EXTT7=
EXTT8=
EXTT9=
EXTT10=
EXTT11=
EXTT12=
EXTT13=
EXTT14=
EXTT15=
EXTT16=
EXTT17=
EXTT18=
EXTT19=
EXTT20=
EXTT21=
PLAYORDER=
